<svg xmlns="http://www.w3.org/2000/svg" viewBox="0 0 82.78 51.36"><title>drone-outline-icon</title><g id="Layer_2" data-name="Layer 2"><g id="Layer_1-2" data-name="Layer 1"><path d="M0,41.49a34.67,34.67,0,0,1,2.46-13A38.68,38.68,0,0,1,9.52,17.21,51.62,51.62,0,0,1,31.75,3,60.33,60.33,0,0,1,58.06.47,58.4,58.4,0,0,1,71,3.6a59,59,0,0,1,11.82,6l-.25.39A76.19,76.19,0,0,0,57.61,4.18c-2.09-.09-4.17-.06-6.23,0-1,.07-2.07.1-3.1.19l-3.07.36a58.3,58.3,0,0,0-12,2.76,54.72,54.72,0,0,0-11.17,5,50.31,50.31,0,0,0-9.76,7.28A40.49,40.49,0,0,0,.47,41.49Z"/><path d="M1.1,45a12.44,12.44,0,0,0,4.27,2.14,24.62,24.62,0,0,0,4.75.92,42,42,0,0,0,9.7-.22,50.63,50.63,0,0,0,18.34-6.18A38.88,38.88,0,0,0,52.25,28.55a36.93,36.93,0,0,0,4-8.8A45.61,45.61,0,0,0,58,10.17l.44,0a32.52,32.52,0,0,1,.16,10.24L58.06,23c-.18.86-.48,1.68-.73,2.54A17.3,17.3,0,0,1,56.39,28l-.54,1.23c-.18.4-.4.79-.61,1.18A28.21,28.21,0,0,1,52.39,35c-.55.7-1.11,1.41-1.68,2.1l-1.82,2a45,45,0,0,1-8.53,6.43,50.61,50.61,0,0,1-9.75,4.09A44.89,44.89,0,0,1,20.28,51.3a36.53,36.53,0,0,1-10.42-.89,24.41,24.41,0,0,1-5-1.83A11.52,11.52,0,0,1,.81,45.3Z"/></g></g></svg>