<svg viewBox="0 0 159.74 89.19" xmlns="http://www.w3.org/2000/svg"><path d="m16 72a60 60 0 0 1 4.3-22.58 67.09 67.09 0 0 1 12.26-19.54c10.29-11.57 24-19.78 38.59-24.67a104.77 104.77 0 0 1 45.67-4.39 99.07 99.07 0 0 1 42.92 15.89l-.44.68a132.49 132.49 0 0 0 -43.3-10.13 117.17 117.17 0 0 0 -42.29 5.74 96 96 0 0 0 -36.34 21.2c-1.22 1.26-2.57 2.45-3.68 3.82s-2.34 2.67-3.41 4.09l-1.65 2.11-1.49 2.22c-.48.76-1 1.49-1.46 2.27s-.84 1.58-1.31 2.36a70.31 70.31 0 0 0 -7.52 21z" fill="#d7af62"/><path d="m17.94 78.06a21.66 21.66 0 0 0 7.41 3.73 42.53 42.53 0 0 0 8.25 1.6 73.1 73.1 0 0 0 16.85-.39 88.43 88.43 0 0 0 31.83-10.72 74.34 74.34 0 0 0 13.66-9.83 62.58 62.58 0 0 0 10.79-12.89 63.93 63.93 0 0 0 7-15.28 78.52 78.52 0 0 0 3-16.62h.77a56.32 56.32 0 0 1 .27 17.78 57.35 57.35 0 0 1 -5.77 17.41 60.25 60.25 0 0 1 -11.06 15c-1.1 1.1-2.28 2.1-3.43 3.16s-2.42 1.94-3.62 2.92a22.55 22.55 0 0 1 -1.89 1.33l-2 1.29c-1.27.89-2.61 1.64-3.94 2.43a79.36 79.36 0 0 1 -34.82 10.13 64.13 64.13 0 0 1 -18.1-1.59 41.37 41.37 0 0 1 -8.6-3.19l-1-.53-1-.62-1-.62a6.63 6.63 0 0 1 -.93-.67c-.59-.52-1.18-1-1.72-1.52s-1-1.15-1.48-1.72z" fill="#d7af62"/><text fill="#fff" font-family="NexaBold, Nexa Bold" font-size="58.83" letter-spacing="-.01em" transform="translate(0 68.14)">S<tspan letter-spacing=".02em" x="38.3" y="0">K</tspan><tspan letter-spacing="-.01em" x="78.28" y="0">A</tspan><tspan letter-spacing="0em" x="122.03" y="0">I</tspan></text><path d="m87.98 35.86-9.37 22.38-9.36-22.38 9.36-9.36z" fill="#ee040e"/></svg>