<?xml version="1.0" encoding="utf-8"?>
<!-- Generator: Adobe Illustrator 23.0.1, SVG Export Plug-In . SVG Version: 6.00 Build 0)  -->
<svg version="1.1" id="Layer_1" xmlns="http://www.w3.org/2000/svg" xmlns:xlink="http://www.w3.org/1999/xlink" x="0px" y="0px"
	 viewBox="0 0 159.7 89.2" style="enable-background:new 0 0 159.7 89.2;" xml:space="preserve">
<style type="text/css">
	.st0{fill:#D7AF62;}
	.st1{enable-background:new    ;}
	.st2{fill:#FFFFFF;}
	.st3{fill:#EE040E;}
</style>
<path class="st0" d="M16,72c0-7.7,1.4-15.4,4.3-22.6c2.9-7.2,7.1-13.8,12.3-19.5c10.3-11.6,24-19.8,38.6-24.7
	c14.7-4.8,30.3-6.3,45.7-4.4c15.4,1.9,30,7.3,42.9,15.9l-0.4,0.7c-13.8-5.8-28.4-9.2-43.3-10.1C101.7,6.6,87.3,8.5,73.7,13
	c-13.5,4.3-25.9,11.5-36.3,21.2c-1.2,1.3-2.6,2.5-3.7,3.8s-2.3,2.7-3.4,4.1l-1.6,2.1l-1.5,2.2c-0.5,0.8-1,1.5-1.5,2.3
	s-0.8,1.6-1.3,2.4c-3.6,6.6-6.1,13.6-7.5,21L16,72z"/>
<path class="st0" d="M17.9,78.1c2.2,1.7,4.7,3,7.4,3.7c2.7,0.8,5.5,1.3,8.2,1.6c5.6,0.5,11.3,0.4,16.8-0.4
	c11.2-1.5,22-5.1,31.8-10.7c4.9-2.7,9.5-6,13.7-9.8c4.2-3.8,7.8-8.1,10.8-12.9c3-4.8,5.3-9.9,7-15.3c1.6-5.4,2.6-11,3-16.6h0.8
	c1,5.9,1.1,11.9,0.3,17.8c-1,6.1-2.9,12-5.8,17.4c-2.9,5.5-6.6,10.6-11.1,15c-1.1,1.1-2.3,2.1-3.4,3.2s-2.4,1.9-3.6,2.9
	c-0.6,0.5-1.2,0.9-1.9,1.3l-2,1.3c-1.3,0.9-2.6,1.6-3.9,2.4c-10.7,6-22.6,9.5-34.8,10.1c-6.1,0.3-12.2-0.2-18.1-1.6
	c-3-0.7-5.9-1.8-8.6-3.2l-1-0.5l-1-0.6l-1-0.6c-0.3-0.2-0.6-0.4-0.9-0.7c-0.6-0.5-1.2-1-1.7-1.5s-1-1.2-1.5-1.7L17.9,78.1z"/>
<g class="st1">
	<path class="st2" d="M28.3,36.9c-1.4-2.4-5.3-4.6-9.8-4.6c-5.8,0-8.5,2.4-8.5,5.5c0,3.6,4.2,4.6,9.2,5.2
		c8.6,1.1,16.6,3.3,16.6,13.1c0,9.2-8.1,13.1-17.3,13.1c-8.4,0-14.9-2.6-17.9-10.1L7,55.7c1.8,4.5,6.6,6.5,11.6,6.5
		c4.9,0,9.5-1.7,9.5-6.2c0-3.9-4.1-5.5-9.5-6.1c-8.4-1-16.2-3.2-16.2-12.5c0-8.5,8.4-11.9,15.9-12c6.4,0,13.1,1.8,16.2,8.2
		L28.3,36.9z"/>
</g>
<g class="st1">
	<path class="st2" d="M74.2,27.2L55.9,46.9l19.8,20.8v0.5h-9.6L48.9,49.9v18.2h-7.8V27h7.8v17.4L64.6,27h9.6V27.2z"/>
</g>
<g class="st1">
	<path class="st2" d="M109,60.4H87.5L84,68.1h-8.4L94,27h8.5L121,68.1h-8.5L109,60.4z M98.3,35.6l-7.6,17.5h15.3L98.3,35.6z"/>
</g>
<g class="st1">
	<path class="st2" d="M125,68.1V27h7.7v41.2H125z"/>
</g>
<path class="st3" d="M88,35.9l-9.4,22.4l-9.4-22.4l9.4-9.4L88,35.9z"/>
</svg>
