<svg xmlns="http://www.w3.org/2000/svg" viewBox="0 0 143.72 89.19"><defs><style>.cls-1{fill:#d7af62;}</style></defs><title>Asset 6</title><g id="Layer_2" data-name="Layer 2"><g id="Layer_1-2" data-name="Layer 1"><path class="cls-1" d="M0,72A60,60,0,0,1,4.27,49.42,67.09,67.09,0,0,1,16.53,29.88c10.3-11.57,24-19.78,38.59-24.67A104.77,104.77,0,0,1,100.79.82a99.18,99.18,0,0,1,42.93,15.89l-.45.68A132.43,132.43,0,0,0,100,7.26,117.2,117.2,0,0,0,57.68,13,96,96,0,0,0,21.34,34.2c-1.22,1.26-2.57,2.45-3.67,3.82s-2.35,2.67-3.41,4.09L12.6,44.22l-1.49,2.22c-.47.76-1,1.49-1.45,2.27s-.85,1.58-1.32,2.36A70.31,70.31,0,0,0,.82,72Z"/><path class="cls-1" d="M1.91,78.06a21.66,21.66,0,0,0,7.41,3.73,42.82,42.82,0,0,0,8.25,1.6A73.1,73.1,0,0,0,34.42,83,88.43,88.43,0,0,0,66.25,72.28a74.75,74.75,0,0,0,13.67-9.83A62.84,62.84,0,0,0,90.7,49.56a63.93,63.93,0,0,0,7-15.28,78.52,78.52,0,0,0,3-16.62l.77,0a56.32,56.32,0,0,1,.27,17.78,57.6,57.6,0,0,1-5.79,17.38,60.75,60.75,0,0,1-11.06,15c-1.11,1.1-2.29,2.1-3.44,3.16S79,72.92,77.82,73.9a22.55,22.55,0,0,1-1.89,1.36L74,76.55c-1.27.89-2.62,1.64-4,2.43A79.36,79.36,0,0,1,35.21,89.11a64.13,64.13,0,0,1-18.1-1.59,41.37,41.37,0,0,1-8.6-3.19l-1-.53-1-.62-1-.62a6.63,6.63,0,0,1-.93-.67c-.59-.52-1.18-1-1.72-1.52s-1-1.15-1.48-1.72Z"/></g></g></svg>