<svg xmlns="http://www.w3.org/2000/svg" viewBox="0 0 159.22 89.19"><defs><style>.cls-1{fill:#d7af62;}.cls-2{fill:#ee040e;}</style></defs><title>logo-full-color</title><g id="Layer_2" data-name="Layer 2"><g id="Layer_1-2" data-name="Layer 1"><path class="cls-1" d="M15.5,72a60,60,0,0,1,4.27-22.61A67.09,67.09,0,0,1,32,29.88C42.32,18.31,56,10.1,70.62,5.21A104.77,104.77,0,0,1,116.29.82a99.18,99.18,0,0,1,42.93,15.89l-.45.68A132.43,132.43,0,0,0,115.51,7.26,117.2,117.2,0,0,0,73.18,13,96,96,0,0,0,36.84,34.2c-1.22,1.26-2.57,2.45-3.68,3.82s-2.34,2.67-3.41,4.09L28.1,44.22l-1.49,2.22c-.48.76-1,1.49-1.46,2.27s-.84,1.58-1.31,2.36a70.31,70.31,0,0,0-7.52,21Z"/><path class="cls-1" d="M17.41,78.06a21.66,21.66,0,0,0,7.41,3.73,42.68,42.68,0,0,0,8.25,1.6A73.1,73.1,0,0,0,49.92,83,88.43,88.43,0,0,0,81.75,72.28a74.34,74.34,0,0,0,13.66-9.83A62.58,62.58,0,0,0,106.2,49.56a63.93,63.93,0,0,0,7-15.28,78.52,78.52,0,0,0,3-16.62l.77,0a56.32,56.32,0,0,1,.27,17.78,57.6,57.6,0,0,1-5.79,17.38,60.53,60.53,0,0,1-11.07,15c-1.1,1.1-2.28,2.1-3.43,3.16s-2.41,1.94-3.62,2.92a22.55,22.55,0,0,1-1.89,1.36L89.5,76.55c-1.27.89-2.61,1.64-3.94,2.43A79.36,79.36,0,0,1,50.71,89.11a64.13,64.13,0,0,1-18.1-1.59A41.37,41.37,0,0,1,24,84.33l-1-.53-1-.62-1-.62a6.63,6.63,0,0,1-.93-.67c-.59-.52-1.18-1-1.72-1.52s-1-1.15-1.48-1.72Z"/><path d="M27.76,36.9c-1.41-2.35-5.29-4.59-9.76-4.59-5.76,0-8.53,2.42-8.53,5.47,0,3.59,4.24,4.59,9.18,5.18,8.58,1.06,16.58,3.3,16.58,13.12,0,9.17-8.11,13.12-17.29,13.12C9.53,69.2,3.06,66.61,0,59.08l6.47-3.35c1.82,4.52,6.59,6.52,11.59,6.52s9.47-1.7,9.47-6.17c0-3.88-4.06-5.47-9.53-6.06C9.59,49,1.82,46.78,1.82,37.55c0-8.47,8.36-11.94,15.94-12,6.42,0,13.06,1.82,16.18,8.18Z"/><path d="M73.71,27.2,55.42,46.9,75.24,67.67v.47H65.66L48.42,49.9V68.14H40.66V27h7.76V44.37L64.07,27h9.64Z"/><path d="M109.87,60.37H88.34l-3.53,7.77H76.4L94.87,27h8.47l18.47,41.18h-8.47ZM99.1,35.61,91.45,53.14h15.3Z"/><path d="M124.45,68.14V27h7.7V68.14Z"/><polygon class="cls-2" points="87.45 35.86 78.08 58.24 68.72 35.86 78.08 26.5 87.45 35.86"/></g></g></svg>