<svg xmlns="http://www.w3.org/2000/svg" viewBox="0 0 138.03 77.07"><defs><style>.cls-1{fill:#b3b3b3;}.cls-2{font-size:50.83px;font-family:NexaBold, Nexa Bold;}.cls-2,.cls-6{fill:#fff;}.cls-3{letter-spacing:-0.01em;}.cls-4{letter-spacing:0.03em;}.cls-5{letter-spacing:0em;}</style></defs><title>Asset 23</title><g id="Layer_2" data-name="Layer 2"><g id="Layer_1-2" data-name="Layer 1"><path class="cls-1" d="M13.85,62.24A51.94,51.94,0,0,1,17.54,42.7,58.19,58.19,0,0,1,28.13,25.82C37,15.82,48.86,8.73,61.47,4.5A90.76,90.76,0,0,1,100.94.7,85.86,85.86,0,0,1,138,14.44l-.39.59a114.29,114.29,0,0,0-37.38-8.76,100.59,100.59,0,0,0-36.57,4.92,82.15,82.15,0,0,0-16.76,7.44L43,21c-1.24.88-2.52,1.72-3.75,2.63-2.38,1.89-4.77,3.8-7,5.91A60.66,60.66,0,0,0,14.56,62.24Z"/><path class="cls-1" d="M15.5,67.45a18.52,18.52,0,0,0,6.41,3.22A36.44,36.44,0,0,0,29,72.05a63.34,63.34,0,0,0,14.56-.33,76.06,76.06,0,0,0,27.5-9.27A63.73,63.73,0,0,0,82.9,54a54.3,54.3,0,0,0,9.32-11.13,55.3,55.3,0,0,0,6.07-13.21,67.06,67.06,0,0,0,2.56-14.36l.67,0a48.48,48.48,0,0,1,.23,15.36,50.65,50.65,0,0,1-5,15A52.13,52.13,0,0,1,87.19,58.6c-1,.95-2,1.82-3,2.73S82.13,63,81.09,63.86s-2.2,1.52-3.29,2.29-2.26,1.42-3.41,2.09A68.5,68.5,0,0,1,44.27,77a57.21,57.21,0,0,1-15.64-1.38,36.07,36.07,0,0,1-7.43-2.75l-.88-.46-.85-.53a18.25,18.25,0,0,1-1.64-1.12c-.51-.45-1-.86-1.49-1.31s-.87-1-1.27-1.49Z"/><text class="cls-2" transform="translate(0 58.87)"><tspan class="cls-3">S</tspan><tspan class="cls-4" x="33.19" y="0">K</tspan><tspan class="cls-5" x="67.81" y="0">A</tspan><tspan x="105.71" y="0">I</tspan></text><polygon class="cls-6" points="76.02 30.99 67.93 50.32 59.83 30.99 67.93 22.89 76.02 30.99"/></g></g></svg>