<svg xmlns="http://www.w3.org/2000/svg" viewBox="0 0 159.74 89.19"><defs><style>.cls-1{fill:#d7af62;}.cls-2{font-size:58.83px;font-family:NexaBold, Nexa Bold;letter-spacing:-0.01em;}.cls-3{letter-spacing:0.02em;}.cls-4{letter-spacing:-0.01em;}.cls-5{letter-spacing:0em;}.cls-6{fill:#ee040e;}</style></defs><title>Asset 9</title><g id="Layer_2" data-name="Layer 2"><g id="Layer_1-2" data-name="Layer 1"><path class="cls-1" d="M16,72A60,60,0,0,1,20.3,49.42,67.09,67.09,0,0,1,32.56,29.88c10.29-11.57,24-19.78,38.59-24.67A104.77,104.77,0,0,1,116.82.82a99.07,99.07,0,0,1,42.92,15.89l-.44.68A132.49,132.49,0,0,0,116,7.26,117.17,117.17,0,0,0,73.71,13,96,96,0,0,0,37.37,34.2c-1.22,1.26-2.57,2.45-3.68,3.82s-2.34,2.67-3.41,4.09l-1.65,2.11-1.49,2.22c-.48.76-1,1.49-1.46,2.27s-.84,1.58-1.31,2.36a70.31,70.31,0,0,0-7.52,21Z"/><path class="cls-1" d="M17.94,78.06a21.66,21.66,0,0,0,7.41,3.73,42.53,42.53,0,0,0,8.25,1.6A73.1,73.1,0,0,0,50.45,83,88.43,88.43,0,0,0,82.28,72.28a74.34,74.34,0,0,0,13.66-9.83,62.58,62.58,0,0,0,10.79-12.89,63.93,63.93,0,0,0,7-15.28,78.52,78.52,0,0,0,3-16.62l.77,0a56.32,56.32,0,0,1,.27,17.78A57.35,57.35,0,0,1,112,52.85a60.25,60.25,0,0,1-11.06,15c-1.1,1.1-2.28,2.1-3.43,3.16s-2.42,1.94-3.62,2.92A22.55,22.55,0,0,1,92,75.26L90,76.55c-1.27.89-2.61,1.64-3.94,2.43A79.36,79.36,0,0,1,51.24,89.11a64.13,64.13,0,0,1-18.1-1.59,41.37,41.37,0,0,1-8.6-3.19l-1-.53-1-.62-1-.62a6.63,6.63,0,0,1-.93-.67c-.59-.52-1.18-1-1.72-1.52s-1-1.15-1.48-1.72Z"/><text class="cls-2" transform="translate(0 68.14)">S<tspan class="cls-3" x="38.3" y="0">K</tspan><tspan class="cls-4" x="78.28" y="0">A</tspan><tspan class="cls-5" x="122.03" y="0">I</tspan></text><polygon class="cls-6" points="87.98 35.86 78.61 58.24 69.25 35.86 78.61 26.5 87.98 35.86"/></g></g></svg>