<svg xmlns="http://www.w3.org/2000/svg" viewBox="0 0 188.93 105.49"><defs><style>.cls-1{fill:#b3b3b3;}.cls-2{font-size:69.58px;font-family:NexaBold, Nexa Bold;}.cls-3{letter-spacing:-0.01em;}.cls-4{letter-spacing:0.02em;}.cls-5{letter-spacing:-0.01em;}</style></defs><title>Asset 8</title><g id="Layer_2" data-name="Layer 2"><g id="Layer_1-2" data-name="Layer 1"><path class="cls-1" d="M19,85.19A70.94,70.94,0,0,1,24,58.44,79.64,79.64,0,0,1,38.5,35.34,97.25,97.25,0,0,1,59.42,17.78,115.46,115.46,0,0,1,84.14,6.17a123.86,123.86,0,0,1,54-5.21,117.26,117.26,0,0,1,50.77,18.81l-.53.8a173.7,173.7,0,0,0-25.52-8.26,142.22,142.22,0,0,0-25.65-3.67,137,137,0,0,0-50,6.67C71.25,20.6,56.27,28.86,44.24,40.48A85,85,0,0,0,28.83,60.4a83,83,0,0,0-8.91,24.79Z"/><path class="cls-1" d="M21.22,92.33A25.46,25.46,0,0,0,30,96.73a49.54,49.54,0,0,0,9.76,1.89,86.23,86.23,0,0,0,19.92-.46A104.33,104.33,0,0,0,97.31,85.49a88.55,88.55,0,0,0,16.16-11.62,74.82,74.82,0,0,0,12.76-15.25,75.8,75.8,0,0,0,8.31-18.08A92.64,92.64,0,0,0,138,20.88l.91.05a66.36,66.36,0,0,1,.32,21c-.34,1.75-.73,3.5-1.11,5.27a21.37,21.37,0,0,1-.7,2.61l-.78,2.6a26.37,26.37,0,0,1-.86,2.6l-1.06,2.52-1.07,2.53c-.38.83-.85,1.62-1.27,2.43a68.56,68.56,0,0,1-5.85,9.34c-1.14,1.45-2.25,2.92-3.45,4.32l-3.78,4c-1.3,1.3-2.71,2.49-4.06,3.73s-2.86,2.31-4.29,3.46l-1.09.84-1.14.77-2.28,1.53c-1.5,1-3.09,1.94-4.66,2.87a93.8,93.8,0,0,1-41.22,12,77.57,77.57,0,0,1-21.41-1.88A49,49,0,0,1,29,99.74l-1.2-.62-1.17-.74-1.14-.73a7.71,7.71,0,0,1-1.1-.8c-.7-.61-1.4-1.17-2-1.8s-1.2-1.36-1.75-2Z"/><text class="cls-2" transform="translate(0 80.59)"><tspan class="cls-3">S</tspan><tspan class="cls-4" x="45.11" y="0">K</tspan><tspan class="cls-5" x="92.25" y="0">A</tspan><tspan x="143.81" y="0">I</tspan></text><polygon points="104.05 42.42 92.97 68.88 81.9 42.42 92.97 31.34 104.05 42.42"/></g></g></svg>