<svg xmlns="http://www.w3.org/2000/svg" viewBox="0 0 124.18 77.07"><defs><style>.cls-1{fill:#b3b3b3;}</style></defs><title>Asset 14</title><g id="Layer_2" data-name="Layer 2"><g id="Layer_1-2" data-name="Layer 1"><path class="cls-1" d="M0,62.24A51.94,51.94,0,0,1,3.69,42.7,58.19,58.19,0,0,1,14.28,25.82C23.18,15.82,35,8.73,47.62,4.5A90.76,90.76,0,0,1,87.09.7a85.86,85.86,0,0,1,37.09,13.74l-.39.59A114.29,114.29,0,0,0,86.41,6.27a100.59,100.59,0,0,0-36.57,4.92,82.15,82.15,0,0,0-16.76,7.44L29.17,21c-1.24.88-2.52,1.72-3.75,2.63-2.38,1.89-4.77,3.8-7,5.91A60.66,60.66,0,0,0,.71,62.24Z" transform="translate(0 0)"/><path class="cls-1" d="M1.65,67.45a18.52,18.52,0,0,0,6.41,3.22,36.58,36.58,0,0,0,7.12,1.38,63.34,63.34,0,0,0,14.56-.33,76.06,76.06,0,0,0,27.5-9.27A63.73,63.73,0,0,0,69.05,54a54.66,54.66,0,0,0,9.33-11.13,55.66,55.66,0,0,0,6.06-13.21A67.06,67.06,0,0,0,87,15.26l.67,0a48.48,48.48,0,0,1,.23,15.36,50.91,50.91,0,0,1-5,15A52.42,52.42,0,0,1,73.34,58.6c-1,.95-2,1.82-3,2.73S68.28,63,67.24,63.86,65,65.38,64,66.15s-2.26,1.42-3.41,2.09A68.47,68.47,0,0,1,30.42,77a57.21,57.21,0,0,1-15.64-1.38,36.29,36.29,0,0,1-7.43-2.75l-.88-.46-.85-.53A18.25,18.25,0,0,1,4,70.76c-.51-.45-1-.86-1.49-1.31s-.87-1-1.27-1.49Z" transform="translate(0 0)"/></g></g></svg>