<svg xmlns="http://www.w3.org/2000/svg" viewBox="0 0 177.36 107.12"><defs><style>.cls-1{fill:#b3b3b3;}.cls-2{font-size:50.83px;font-family:NexaBold, Nexa Bold;}.cls-2,.cls-6{fill:#fff;}.cls-3{letter-spacing:-0.01em;}.cls-4{letter-spacing:0.03em;}.cls-5{letter-spacing:0em;}</style></defs><title>Asset 20</title><g id="Layer_2" data-name="Layer 2"><g id="Layer_1-2" data-name="Layer 1"><rect width="177.36" height="107.12"/><path class="cls-1" d="M35.48,78.26a51.73,51.73,0,0,1,3.68-19.54A58.19,58.19,0,0,1,49.75,41.84c8.9-10,20.73-17.09,33.35-21.32a90.6,90.6,0,0,1,39.47-3.8,85.55,85.55,0,0,1,37.08,13.74l-.38.59a114.35,114.35,0,0,0-37.38-8.76A100.42,100.42,0,0,0,85.31,27.2a82.65,82.65,0,0,0-16.75,7.45L64.64,37c-1.24.88-2.52,1.72-3.74,2.63-2.39,1.89-4.77,3.8-7,5.91A60.67,60.67,0,0,0,36.18,78.26Z"/><path class="cls-1" d="M37.13,83.47a18.48,18.48,0,0,0,6.4,3.22,36.54,36.54,0,0,0,7.13,1.38,62.7,62.7,0,0,0,14.55-.34,76,76,0,0,0,27.51-9.26A64.06,64.06,0,0,0,104.53,70a54.62,54.62,0,0,0,9.32-11.13,55.27,55.27,0,0,0,6.06-13.21,67.06,67.06,0,0,0,2.56-14.36l.67,0a48.47,48.47,0,0,1,.23,15.36,50.91,50.91,0,0,1-5,15,52.35,52.35,0,0,1-9.56,12.93c-1,.95-2,1.82-3,2.73s-2.08,1.68-3.13,2.52-2.19,1.53-3.29,2.29-2.26,1.42-3.41,2.1A68.45,68.45,0,0,1,65.9,93a56.78,56.78,0,0,1-15.64-1.37,36.16,36.16,0,0,1-7.44-2.75L42,88.43l-.85-.54a14,14,0,0,1-1.64-1.12c-.51-.44-1-.85-1.49-1.31s-.88-1-1.28-1.49Z"/><text class="cls-2" transform="translate(21.62 74.89)"><tspan class="cls-3">S</tspan><tspan class="cls-4" x="33.19" y="0">K</tspan><tspan class="cls-5" x="67.81" y="0">A</tspan><tspan x="105.71" y="0">I</tspan></text><polygon class="cls-6" points="97.64 47.01 89.55 66.34 81.46 47.01 89.55 38.91 97.64 47.01"/></g></g></svg>