<svg xmlns="http://www.w3.org/2000/svg" viewBox="0 0 16.07 9.93"><defs><style>.cls-1{fill:#ee040e;}</style></defs><title>favicon-lg</title><g id="Layer_2" data-name="Layer 2"><g id="Layer_1-2" data-name="Layer 1"><path d="M0,8a7,7,0,0,1,1.87-4.7A9.92,9.92,0,0,1,6.17.58a11.57,11.57,0,0,1,9.9,1.27L16,1.92c-.42-.14-.82-.28-1.2-.44S14,1.26,13.6,1.15A10.55,10.55,0,0,0,11.18.8a13.16,13.16,0,0,0-4.72.64A10.81,10.81,0,0,0,2.39,3.8,7.1,7.1,0,0,0,.94,5.69,9.42,9.42,0,0,0,.42,6.8L.09,8Z"/><path d="M.21,8.71a5.25,5.25,0,0,0,3.64.55A9.91,9.91,0,0,0,7.4,8.05a7.32,7.32,0,0,0,2.74-2.53A7.88,7.88,0,0,0,11.26,2h.09a6.91,6.91,0,0,1,0,2,3.72,3.72,0,0,1-.25,1,7.15,7.15,0,0,1-.39,1A7,7,0,0,1,7.83,8.8a8.73,8.73,0,0,1-3.9,1.12,8.61,8.61,0,0,1-2-.16,3.41,3.41,0,0,1-1.75-1Z"/><polygon class="cls-1" points="6.57 4.66 5.16 8.03 3.75 4.66 5.16 3.25 6.57 4.66"/></g></g></svg>