<svg xmlns="http://www.w3.org/2000/svg" viewBox="0 0 100.44 62.32"><defs><style>.cls-1{fill:#ee040e;}</style></defs><title>favicon-sm</title><g id="Layer_2" data-name="Layer 2"><g id="Layer_1-2" data-name="Layer 1"><path d="M0,50.34a41.92,41.92,0,0,1,3-15.8,47,47,0,0,1,8.57-13.66,62.57,62.57,0,0,1,27-17.24A73.21,73.21,0,0,1,70.44.57a69.17,69.17,0,0,1,30,11.11l-.31.48A92.39,92.39,0,0,0,69.89,5.08a81.87,81.87,0,0,0-29.58,4A67,67,0,0,0,14.92,23.9,49.08,49.08,0,0,0,.57,50.34Z"/><path d="M1.34,54.56a15,15,0,0,0,5.18,2.6,29.49,29.49,0,0,0,5.76,1.12A50.94,50.94,0,0,0,24.05,58,61.65,61.65,0,0,0,46.3,50.52a52.59,52.59,0,0,0,9.55-6.87,44,44,0,0,0,7.54-9A44.57,44.57,0,0,0,68.3,24a55,55,0,0,0,2.07-11.62l.54,0a39.43,39.43,0,0,1,.19,12.42c-.2,1-.44,2.07-.66,3.11S69.86,30,69.57,31a21.58,21.58,0,0,1-1.15,3l-.65,1.48c-.23.49-.5,1-.74,1.44-.52.95-1,1.95-1.6,2.85s-1.19,1.82-1.86,2.67-1.35,1.71-2,2.55l-2.22,2.4c-.76.78-1.59,1.48-2.39,2.21s-1.69,1.37-2.53,2A56.07,56.07,0,0,1,49,55.2a55.28,55.28,0,0,1-24.37,7c-1.06,0-2.11.09-3.17.06l-1.59,0c-.53,0-1.06-.08-1.59-.13a44.72,44.72,0,0,1-6.29-1,29.35,29.35,0,0,1-6-2.23l-.71-.37-.69-.43a12,12,0,0,1-1.33-.91c-.41-.36-.82-.69-1.2-1.06s-.71-.8-1-1.21Z"/><polygon class="cls-1" points="41.07 29.28 32.25 50.34 23.43 29.28 32.25 20.46 41.07 29.28"/></g></g></svg>