<svg xmlns="http://www.w3.org/2000/svg" viewBox="0 0 32.14 19.93"><defs><style>.cls-1{fill:#ee040e;}</style></defs><title>favicon-md</title><g id="Layer_2" data-name="Layer 2"><g id="Layer_1-2" data-name="Layer 1"><path d="M0,16.1A14.08,14.08,0,0,1,3.71,6.68a19.83,19.83,0,0,1,8.62-5.52,23.26,23.26,0,0,1,10.21-1,22.66,22.66,0,0,1,9.6,3.54l-.1.15a29.4,29.4,0,0,0-9.67-2.27,26.71,26.71,0,0,0-4.82.2A23.07,23.07,0,0,0,12.9,2.88,21.33,21.33,0,0,0,4.77,7.64,15.57,15.57,0,0,0,.18,16.1Z"/><path d="M.43,17.45a6.81,6.81,0,0,0,3.5,1.21,17,17,0,0,0,3.77-.09,19.79,19.79,0,0,0,7.12-2.42,15.07,15.07,0,0,0,5.48-5.07,14.57,14.57,0,0,0,1.58-3.42,18,18,0,0,0,.64-3.72h.17a12.57,12.57,0,0,1,.06,4,13.12,13.12,0,0,1-1.3,3.89A13.69,13.69,0,0,1,19,15.16a17.71,17.71,0,0,1-3.31,2.49,17.71,17.71,0,0,1-7.8,2.26,14.45,14.45,0,0,1-4-.35,6.29,6.29,0,0,1-3.51-2Z"/><polygon class="cls-1" points="13.14 9.36 10.32 16.1 7.5 9.36 10.32 6.54 13.14 9.36"/></g></g></svg>