<?xml version="1.0" standalone="no"?>
<!DOCTYPE svg PUBLIC "-//W3C//DTD SVG 20010904//EN"
 "http://www.w3.org/TR/2001/REC-SVG-20010904/DTD/svg10.dtd">
<svg version="1.0" xmlns="http://www.w3.org/2000/svg"
 width="158.000000pt" height="158.000000pt" viewBox="0 0 158.000000 158.000000"
 preserveAspectRatio="xMidYMid meet">
<metadata>
Created by potrace 1.11, written by Peter Selinger 2001-2013
</metadata>
<g transform="translate(0.000000,158.000000) scale(0.100000,-0.100000)"
fill="#000000" stroke="none">
<path d="M558 1350 c-126 -125 -228 -234 -228 -242 0 -8 32 -90 71 -184 82
-193 231 -550 321 -766 54 -130 78 -172 78 -138 0 6 9 29 19 53 11 23 74 175
141 337 68 162 131 313 141 335 31 69 149 358 149 366 0 6 -395 405 -446 451
-18 16 -29 6 -246 -212z"/>
</g>
</svg>
